PathFileType	4	(X/Y/Z)	C:/Users/beibeiliu/ov580/test_trc/User2\sequence.37_training_dense_right.trc
DataRate	CameraRate	NumFrames	NumMarkers	Units	OrigDataRate	OrigDataStartFrame	OrigNumFrames
120	120	14	19	mm	120	1	88
Frame#	Time	ThumbCMC			ThumbMCP			ThumbIP			ThumbTip			IndexMCP			IndexPIP			IndexTip			MiddleMCP			MiddlePIP			MiddleTip			RingMCP			RingPIP			RingTip			PinkyMCP			PinkyPIP			PinkyTip			BackHand1			BackHand2			BackHand3	
		X0	Y0	Z0	X1	Y1	Z1	X2	Y2	Z2	X3	Y3	Z3	X4	Y4	Z4	X5	Y5	Z5	X6	Y6	Z6	X7	Y7	Z7	X8	Y8	Z8	X9	Y9	Z9	X10	Y10	Z10	X11	Y11	Z11	X12	Y12	Z12	X13	Y13	Z13	X14	Y14	Z14	X15	Y15	Z15	X16	Y16	Z16	X17	Y17	Z17	X18	Y18	Z18	
0	0	154.96	53.0854	-0.977895	132.142	83.0313	-22.815	97.6124	87.9798	-38.5599	71.6942	78.4578	-41.9141	124.251	23.7407	-72.3369	110.166	24.1593	-99.7891	101.875	23.5729	-121.882	104.953	9.51947	-70.9177	95.2985	13.1421	-99.8122	80.0132	11.0919	-127.708	76.3713	20.9521	-53.8279	59.8574	48.9196	-57.6467	68.9549	71.859	-29.4888	65.9474	20.41	-30.7071	52.2759	51.3908	-33.0088	63.4783	73.0672	-14.158	114	-3.21271	-8.31651	134.392	-8.59929	20.4943	151.88	10.6133	-7.86941	
1	0.00833333	155.97	56.125	-6.98772	129.075	73.6493	-23.525	95.4436	67.1841	-45.1607	72.6591	56.6366	-52.4259	145.197	19.6432	-75.8166	137.356	17.0567	-105.299	124.911	11.0691	-129.65	134.671	2.52654	-75.6812	124.602	0.912677	-109.886	114.365	-5.06655	-137.407	99.7549	2.12477	-63.8343	73.2648	16.2325	-65.7535	73.5897	46.0118	-40.1839	88.2876	-3.25577	-38.2743	65.2182	22.9432	-40.8506	73.9802	46.8514	-21.458	138.748	-10.7273	-12.3425	155.899	-9.47844	18.2946	169.65	13.9704	-11.7717	
2	0.0166667	151.479	64.679	-1.61822	118.948	67.0783	-25.565	91.5853	52.7494	-48.6686	78.5998	31.6413	-56.8941	159.252	27.991	-77.1187	155.342	27.1675	-103.416	148.087	17.2415	-128.973	155.898	8.30988	-82.9586	150.274	6.35618	-112.369	144.422	-1.77838	-142.585	123.275	-8.21979	-67.159	95.8826	0.832688	-73.9438	80.5641	21.8101	-46.8792	112.422	-16.5856	-46.3713	83.5496	-1.81792	-46.5224	79.5204	21.367	-27.8258	160.707	-7.26271	-15.5774	173.275	-3.76636	15.519	179.894	26.7814	-8.70231	
3	0.025	137.854	69.163	-0.238034	106.802	63.7992	-22.7397	91.494	38.3324	-50.6318	86.3613	14.6575	-62.5711	164.611	50.0379	-72.9987	162.532	47.2438	-104.96	161.986	38.0773	-128.984	170.951	25.0223	-79.8298	167.575	24.2214	-112.844	165.985	19.4497	-141.128	145.556	0.718443	-72.8241	113.195	-3.24483	-78.0816	93.5776	8.12171	-51.2397	138.987	-15.0348	-50.6277	107.57	-12.7238	-53.1789	92.1607	5.83954	-27.122	178.793	12.0202	-16.655	183.589	15.4978	19.1355	178.577	49.9153	-8.41996	
4	0.0333333	123.052	67.3261	4.30969	99.3249	52.4971	-20.6496	94.1786	29.2294	-51.6832	102.465	6.00641	-66.7209	161.144	68.7906	-68.605	160.765	72.4474	-94.1687	164.259	66.2721	-121.631	172.745	54.1463	-70.5038	172.587	55.0464	-107.099	175.029	55.8242	-133.856	162.237	19.0649	-68.1117	132.101	5.44117	-81.6701	108.304	0.821481	-54.8953	161.446	-3.95577	-51.1414	125.875	-11.5934	-57.3568	110.143	-4.30955	-30.1096	183.581	31.311	-9.43658	188.314	30.5316	23.6805	170.912	60.9511	3.90668	
5	0.0416667	110.078	54.9924	6.75487	96.0448	36.9974	-20.463	97.522	19.0487	-50.4766	113.349	3.58707	-69.5173	144.007	82.6357	-59.3697	149.645	85.9924	-87.8413	149.672	93.8748	-115.563	165.33	71.442	-63.5989	166.914	78.1461	-95.6924	166.911	85.4313	-123.564	164.216	36.3623	-69.5897	147.504	14.2556	-85.0744	123.415	1.5403	-62.674	171.362	10.2197	-55.6637	144.68	-4.57102	-62.9479	123.935	-10.9883	-33.0401	181.946	42.8601	-7.88461	179.948	43.2805	25.1402	156.22	67.7075	6.88544	
6	0.05	101.206	43.1248	8.81334	86.7418	25.8633	-22.0952	95.1996	10.8326	-57.6041	115.469	-0.363973	-74.802	127.798	82.8648	-55.8018	127.046	92.6952	-83.5573	134.585	96.8289	-109.188	147.61	79.9575	-59.9196	148.108	88.2372	-90.5041	149.958	97.8322	-119.594	161.228	43.0575	-68.3427	147.382	19.4673	-84.9236	128.854	-1.83152	-63.5698	168.932	22.1926	-52.4313	148.108	-5.00332	-62.2329	130.915	-13.5014	-33.3722	169.301	52.5899	-2.1641	167.119	48.4749	29.8748	138.585	67.6617	10.717	
7	0.0583333	88.7046	33.26	14.555	78.8194	14.9835	-20.1914	89.2329	0.967121	-53.7769	112.717	-6.11947	-72.4799	109.96	77.0402	-54.8818	112.071	83.214	-84.8435	113.784	90.7509	-111.104	133.287	74.574	-61.2672	130.737	83.2348	-91.1879	133.746	93.7083	-122.684	149.941	39.0664	-67.2367	139.19	13.1726	-82.2456	121.402	-6.7057	-60.139	160.946	21.2337	-49.9129	143.006	-5.40845	-60.6814	128.274	-20.7128	-31.9633	156.882	53.7345	-4.87958	156.394	48.0516	33.2114	122.639	63.834	15.1492	
8	0.0666667	82.8229	27.7248	14.6631	68.7839	5.26082	-12.8093	79.929	-10.8789	-42.642	101.666	-20.8416	-61.6644	99.9588	62.4078	-56.7522	97.9066	66.7746	-84.0383	100.557	68.1687	-108.49	122.443	61.3278	-60.5404	118.543	66.2432	-94.8653	117.318	70.8773	-119.304	137.254	29.3369	-60.6248	127.26	2.22376	-76.0775	112.9	-20.5147	-47.4972	151.307	8.22746	-47.0336	130.705	-18.6727	-49.8084	121.916	-28.9492	-21.9038	151.128	45.7068	-2.33989	150.455	44.1521	31.5377	116.098	56.349	16.5796	
9	0.075	71.725	27.0188	24.9525	57.6296	-1.63614	-1.84015	65.2467	-23.9958	-28.5368	89.0436	-37.0987	-45.7317	93.3804	43.7548	-56.7572	86.1813	42.0186	-80.8908	88.1443	37.0763	-111.328	110.003	41.7195	-63.1875	107.422	37.466	-94.9945	104.848	37.4597	-120.552	127.152	7.42422	-55.0274	112.495	-20.1605	-63.6029	97.7191	-33.3721	-31.8646	140.435	-13.691	-37.3084	116.261	-37.125	-32.583	102.3	-33.8931	-3.77482	138.151	34.1589	1.40575	143.619	38.0834	31.4483	112.589	52.0948	17.0395	
10	0.0833333	70.2627	31.6237	27.0637	46.0733	2.09606	7.96549	47.7343	-28.4516	-13.0279	71.8705	-45.3948	-25.4812	83.8042	32.7571	-51.0905	75.545	23.7832	-81.0879	77.3909	13.0201	-103.185	102.741	21.9515	-60.4265	98.0283	13.0793	-87.8674	91.2317	5.525	-116.273	112.303	-13.978	-48.8016	93.2988	-37.8611	-47.0097	79.8379	-38.6744	-12.6428	123.068	-30.7113	-24.3237	95.6269	-45.4647	-13.1187	85.8958	-30.5333	17.2016	133.398	25.0703	3.77379	141.039	35.5601	34.4219	109.508	47.6784	16.5668	
11	0.0916667	70.372	46.5161	35.2811	43.0651	20.71	22.2386	32.3248	-14.2933	2.49877	48.1543	-38.34	-8.30505	72.8859	31.1283	-49.3072	63.4169	18.9341	-73.6202	55.0291	6.1628	-96.6049	88.3125	16.7239	-52.9758	76.5167	2.78664	-81.9024	64.0724	-5.62244	-106.665	90.4034	-19.5931	-38.7352	67.0445	-38.2151	-29.669	58.8518	-26.1894	5.83691	94.2389	-32.7565	-14.6573	69.2228	-39.2744	6.96676	71.7139	-19.2891	31.8922	127.477	15.517	-0.674261	139.546	30.1079	30.5864	107.946	50.1208	10.7281	
12	0.1	78.5054	66.3494	35.1072	43.3057	48.841	29.6406	21.3693	21.7389	20.0411	23.3055	-6.98215	9.4638	65.7252	42.0529	-48.0708	50.2471	31.0664	-66.6318	35.7192	24.2645	-83.992	72.1813	22.2014	-52.9191	53.3646	8.40411	-75.0851	37.5373	1.75043	-95.5694	64.2331	-9.36215	-29.4287	38.3159	-18.6285	-11.5126	40.174	0.328638	18.9875	69.5826	-23.9951	-4.39149	46.835	-16.1909	18.1817	58.2911	4.7784	40.0005	119.666	15.5013	-1.10948	137.558	24.8317	26.6632	116.984	54.362	9.52919	
13	0.108333	94.1112	76.0987	31.1601	54.1285	78.7443	31.9526	24.7602	60.0823	24.4522	12.7792	35.097	19.7372	66.7573	54.7789	-42.5538	45.846	51.6022	-62.579	24.6715	48.38	-82.7807	65.8402	31.6159	-46.1347	41.6055	30.2351	-66.738	17.9166	27.5207	-89.9342	44.388	9.69792	-21.6348	21.1673	19.3671	-6.265	28.7016	30.5097	25.1793	50.4914	-3.72252	3.45451	31.5089	14.6187	28.4797	48.4613	30.767	44.415	109.964	15.964	2.32283	131.478	18.0369	23.5067	122.547	53.2374	6.24796	
